<svg width="379" height="127" viewBox="0 0 379 127" fill="none" xmlns="http://www.w3.org/2000/svg">
<path d="M352.244 124.972V106.226L350.459 102.12V68.5559C350.459 62.6048 348.614 57.963 344.925 54.6304C341.354 51.2979 335.82 49.6316 328.321 49.6316C323.203 49.6316 318.145 50.4647 313.146 52.131C308.266 53.6783 304.101 55.8206 300.649 58.5581L290.651 39.0982C295.888 35.4086 302.196 32.5521 309.576 30.5287C316.955 28.5054 324.453 27.4937 332.07 27.4937C346.71 27.4937 358.077 30.9453 366.17 37.8485C374.263 44.7517 378.31 55.5231 378.31 70.1627V124.972H352.244ZM322.965 126.4C315.467 126.4 309.04 125.15 303.684 122.651C298.328 120.032 294.222 116.521 291.365 112.117C288.509 107.714 287.081 102.774 287.081 97.2994C287.081 91.5864 288.449 86.5875 291.187 82.3028C294.043 78.018 298.507 74.6854 304.577 72.305C310.647 69.8056 318.562 68.5559 328.321 68.5559H353.851V84.8022H331.356C324.81 84.8022 320.287 85.8734 317.788 88.0158C315.408 90.1582 314.217 92.8361 314.217 96.0497C314.217 99.6203 315.586 102.477 318.324 104.619C321.18 106.643 325.048 107.654 329.928 107.654C334.57 107.654 338.736 106.583 342.425 104.441C346.115 102.179 348.793 98.9062 350.459 94.6214L354.744 107.476C352.721 113.665 349.031 118.366 343.675 121.58C338.319 124.793 331.416 126.4 322.965 126.4Z" fill="#0144F2"/>
<path d="M226.772 124.972V28.9219H253.373V56.0587L249.624 48.2033C252.481 41.4191 257.063 36.3012 263.371 32.8496C269.679 29.279 277.356 27.4937 286.401 27.4937V53.2022C285.211 53.0832 284.14 53.0237 283.188 53.0237C282.236 52.9046 281.224 52.8451 280.153 52.8451C272.536 52.8451 266.346 55.047 261.586 59.4508C256.944 63.7355 254.623 70.4602 254.623 79.6248V124.972H226.772Z" fill="#0144F2"/>
<path d="M161.845 126.4C151.609 126.4 142.504 124.258 134.53 119.973C126.675 115.688 120.426 109.856 115.784 102.477C111.261 94.9785 109 86.4685 109 76.9468C109 67.3062 111.261 58.7962 115.784 51.4169C120.426 43.9186 126.675 38.0865 134.53 33.9208C142.504 29.6361 151.609 27.4937 161.845 27.4937C171.962 27.4937 181.008 29.6361 188.982 33.9208C196.956 38.0865 203.205 43.8591 207.728 51.2383C212.251 58.6176 214.512 67.1871 214.512 76.9468C214.512 86.4685 212.251 94.9785 207.728 102.477C203.205 109.856 196.956 115.688 188.982 119.973C181.008 124.258 171.962 126.4 161.845 126.4ZM161.845 103.548C166.487 103.548 170.653 102.477 174.342 100.334C178.032 98.1921 180.948 95.157 183.09 91.2293C185.233 87.1826 186.304 82.4218 186.304 76.9468C186.304 71.3529 185.233 66.592 183.09 62.6643C180.948 58.7367 178.032 55.7016 174.342 53.5592C170.653 51.4169 166.487 50.3457 161.845 50.3457C157.203 50.3457 153.038 51.4169 149.348 53.5592C145.658 55.7016 142.683 58.7367 140.422 62.6643C138.279 66.592 137.208 71.3529 137.208 76.9468C137.208 82.4218 138.279 87.1826 140.422 91.2293C142.683 95.157 145.658 98.1921 149.348 100.334C153.038 102.477 157.203 103.548 161.845 103.548Z" fill="#0144F2"/>
<path d="M25.887 96.4069L24.2803 63.0215L84.0882 0H116.224L62.3074 58.0227L46.2396 75.1617L25.887 96.4069ZM0 124.972V0H28.7435V124.972H0ZM85.5165 124.972L41.0622 70.5199L59.9865 49.9888L119.259 124.972H85.5165Z" fill="#0144F2"/>
</svg>
